<?xml version="1.0" encoding="UTF-8" standalone="no"?>
<!-- Created with Inkscape (http://www.inkscape.org/) -->

<svg
   version="1.1"
   id="svg9"
   width="160"
   height="160"
   viewBox="0 0 160 160"
   sodipodi:docname="logo.svg"
   inkscape:version="1.2.1 (9c6d41e, 2022-07-14)"
   inkscape:export-filename="logo-big.png"
   inkscape:export-xdpi="308.22488"
   inkscape:export-ydpi="308.22488"
   xmlns:inkscape="http://www.inkscape.org/namespaces/inkscape"
   xmlns:sodipodi="http://sodipodi.sourceforge.net/DTD/sodipodi-0.dtd"
   xmlns="http://www.w3.org/2000/svg"
   xmlns:svg="http://www.w3.org/2000/svg">
  <defs
     id="defs13" />
  <sodipodi:namedview
     id="namedview11"
     pagecolor="#ffffff"
     bordercolor="#000000"
     borderopacity="0.25"
     inkscape:showpageshadow="2"
     inkscape:pageopacity="0.0"
     inkscape:pagecheckerboard="0"
     inkscape:deskcolor="#d1d1d1"
     showgrid="false"
     inkscape:zoom="1.4246729"
     inkscape:cx="-48.432169"
     inkscape:cy="87.388479"
     inkscape:window-width="1440"
     inkscape:window-height="771"
     inkscape:window-x="0"
     inkscape:window-y="25"
     inkscape:window-maximized="1"
     inkscape:current-layer="g15" />
  <g
     inkscape:groupmode="layer"
     inkscape:label="Image"
     id="g15"
     transform="translate(-3.2645441,-3.030686)">
    <path
       style="fill:#000000"
       d="M 60.498535,159.93479 C 51.714336,158.20954 37.334408,151.1339 29.740171,144.80015 18.111462,135.10155 9.3424706,121.30303 5.3987896,106.49755 2.8950346,97.097892 2.9107346,75.520906 5.4286096,65.497547 12.309389,38.106006 29.669108,17.176581 52.330745,8.9508481 c 14.010656,-5.085594 34.399669,-5.690253 48.167795,-1.428468 9.23736,2.8593349 16.296,6.9660149 23.60622,13.7339919 3.40977,3.156848 6.34676,5.156791 6.81878,4.643255 1.0231,-1.113082 3.85632,-10.004886 4.27033,-13.40208 0.20875,-1.712925 1.01304,-2.6006039 2.55467,-2.8195509 l 2.25,-0.319551 V 34.927996 60.497547 h -14.5 c -7.975,0 -14.50181,-0.3375 -14.50402,-0.75 -0.0135,-2.519841 -3.21648,-19.517088 -4.40805,-23.392309 C 102.89207,24.340379 96.062878,14.179554 89.630424,11.127156 85.253464,9.0501561 77.769693,9.0377731 73.423162,11.100336 c -8.128371,3.857165 -15.142074,15.779123 -18.58184,31.585588 -1.584786,7.282434 -2.141893,14.456563 -2.556478,32.92097 -0.742549,33.071036 1.529114,50.971146 8.185446,64.499216 7.83589,15.92533 20.464303,21.29116 31.423928,13.35205 7.850051,-5.68655 11.835142,-20.49102 10.487462,-38.96061 -0.8778,-12.03011 -2.722581,-15.000008 -9.317402,-15.000008 -2.60346,0 -3.065744,-0.37698 -3.065744,-2.5 v -2.5 h 36.500006 36.5 v 2.5 c 0,2.27363 -0.38482,2.5005 -4.25,2.50558 -6.86229,0.009 -11.43001,1.736848 -13.9569,5.279528 -2.18318,3.0608 -2.30848,4.20288 -2.61397,23.82591 l -0.32087,20.61103 -7.17913,0.54398 c -4.54574,0.34443 -12.31449,2.21104 -21.17913,5.08873 -7.7,2.49962 -16.670152,5.01738 -19.933662,5.59501 -8.031984,1.42164 -24.519652,1.16608 -33.066341,-0.51252 z m -6.402546,-13.30038 c -3.926267,-5.51393 -9.07141,-17.58443 -11.784058,-27.64537 -2.554681,-9.47506 -2.694674,-11.18029 -2.708472,-32.991493 -0.01263,-19.965981 0.264984,-24.187225 2.104513,-32 2.837085,-12.049559 7.654603,-25.06154 11.87131,-32.064075 1.899406,-3.154276 3.284956,-5.903555 3.079002,-6.10951 -0.205955,-0.205954 -3.131161,1.654903 -6.500458,4.135238 -10.091307,7.428798 -15.349493,16.20776 -19.430946,32.441521 -1.887849,7.508816 -2.157715,11.317855 -2.13233,30.096826 0.03804,28.138983 2.514458,39.449973 11.623772,53.091273 3.615022,5.41354 14.519134,15.50314 15.593537,14.42874 0.222672,-0.22267 -0.549469,-1.74509 -1.71587,-3.38315 z m 74.402551,-3.53918 5,-1.31405 0.68532,-15.89182 c 0.62331,-14.4536 1.17162,-18.36108 3.31752,-23.64181 0.60481,-1.48835 0.13444,-1.74781 -3.14585,-1.73527 -8.62564,0.033 -11.85309,4.55599 -12.92849,18.11825 -0.70207,8.85399 0.22963,25.90187 1.41127,25.82289 0.36313,-0.0243 2.91023,-0.63546 5.66023,-1.35819 z"
       id="path177" />
  </g>
</svg>
